<?xml version="1.0" standalone="no"?>
<!DOCTYPE svg PUBLIC "-//W3C//DTD SVG 20010904//EN"
 "http://www.w3.org/TR/2001/REC-SVG-20010904/DTD/svg10.dtd">
<svg version="1.0" xmlns="http://www.w3.org/2000/svg"
 width="300.000000pt" height="300.000000pt" viewBox="0 0 300.000000 300.000000"
 preserveAspectRatio="xMidYMid meet">
<metadata>
Created by potrace 1.14, written by Peter Selinger 2001-2017
</metadata>
<g transform="translate(0.000000,300.000000) scale(0.100000,-0.100000)"
fill="#000000" stroke="none">
<path d="M1093 2772 c-50 -21 -94 -40 -98 -44 -3 -3 64 -176 150 -384 l156
-379 91 -73 c49 -40 92 -72 93 -70 7 7 15 67 20 158 l5 95 -152 364 c-84 201
-157 366 -163 367 -5 2 -51 -14 -102 -34z m188 -352 c65 -157 119 -288 119
-291 0 -4 -8 -9 -17 -12 -10 -2 -25 -8 -34 -11 -11 -5 -22 7 -41 51 -50 111
-218 526 -215 529 7 7 53 22 61 20 5 -1 62 -130 127 -286z m152 -407 c-3 -21
-6 -39 -8 -41 -1 -2 -17 9 -35 24 l-32 27 29 13 c46 20 51 18 46 -23z"/>
<path d="M1548 2636 c-81 -34 -150 -64 -153 -67 -3 -3 0 -20 6 -38 13 -37 3
-38 155 24 l109 44 33 -82 c18 -45 39 -95 47 -112 7 -16 72 -174 145 -350 73
-176 197 -477 277 -669 112 -271 142 -351 131 -357 -7 -5 -89 -40 -183 -78
-454 -186 -967 -400 -972 -404 -2 -3 1 -18 9 -34 11 -24 20 -28 54 -29 51 -1
88 -25 110 -72 15 -32 15 -41 3 -76 -17 -47 -55 -77 -100 -80 -46 -3 -76 12
-98 48 -11 17 -175 409 -366 871 -191 462 -352 852 -359 866 -15 31 -56 10
339 174 154 63 290 120 303 125 21 9 21 12 8 42 -7 18 -20 32 -27 30 -14 -3
-417 -165 -454 -182 -11 -6 -78 -34 -150 -64 -72 -29 -129 -58 -128 -62 7 -35
760 -1834 775 -1854 11 -14 36 -35 56 -47 58 -36 120 -31 238 18 96 40 348
144 964 399 162 67 310 133 329 147 74 56 90 177 35 256 -56 79 -158 103 -256
59 l-46 -21 -6 25 c-4 13 -17 48 -30 77 -13 28 -152 363 -309 742 -157 380
-296 714 -308 743 -12 28 -24 52 -28 51 -3 -1 -72 -29 -153 -63z m1047 -1626
c35 -22 57 -74 49 -118 -6 -31 -48 -79 -78 -88 -12 -4 -39 -15 -61 -25 -41
-18 -98 -42 -690 -285 -192 -79 -364 -150 -380 -158 l-31 -14 0 47 c-1 55 -34
124 -70 148 l-26 16 149 62 c187 79 1013 421 1033 428 31 11 74 6 105 -13z"/>
<path d="M1695 1782 c-6 -5 -134 -60 -285 -122 -388 -159 -464 -191 -473 -200
-6 -5 3 -39 18 -68 2 -2 249 98 290 118 11 5 126 53 255 106 129 53 236 98
238 99 2 2 -5 19 -15 39 -11 22 -22 33 -28 28z"/>
<path d="M1188 1402 c-102 -42 -189 -80 -192 -83 -3 -3 -1 -20 5 -38 13 -38 0
-41 214 49 88 36 168 70 177 73 15 5 16 10 6 34 -6 15 -14 31 -17 35 -3 4 -90
-28 -193 -70z"/>
<path d="M1580 1399 c-36 -15 -76 -32 -90 -38 -14 -6 -117 -49 -229 -96 -113
-47 -207 -87 -209 -90 -6 -6 19 -65 27 -65 7 0 286 114 356 145 17 7 75 32
130 55 55 22 103 44 107 48 3 4 -1 21 -10 38 l-17 30 -65 -27z"/>
<path d="M1498 1196 c-214 -88 -388 -165 -388 -171 1 -5 6 -22 13 -36 l12 -27
388 161 c275 115 387 166 387 177 -1 8 -6 24 -13 36 -12 20 -21 17 -399 -140z"/>
</g>
</svg>
